<svg width="147" height="35" viewBox="0 0 147 35" fill="none" xmlns="http://www.w3.org/2000/svg">
<g clip-path="url(#clip0_43_4194)">
<path d="M9.88 34.7198C13 34.7198 15.86 33.8198 18.46 32.0198C21.06 30.2198 22.97 27.5698 24.2 24.0798C24.3 23.8398 24.36 23.5798 24.36 23.2798C24.36 22.6698 24.11 22.1698 23.62 21.7798C23.1239 21.3924 22.5094 21.1876 21.88 21.1998C21.35 21.1998 20.86 21.3298 20.42 21.5998C19.9661 21.8849 19.6318 22.3258 19.48 22.8398C18.52 25.2398 17.21 27.0198 15.56 28.1798C14.1035 29.273 12.3407 29.8816 10.52 29.9198C9.33736 29.9775 8.17337 29.6084 7.24 28.8798C6.84796 28.5704 6.53225 28.175 6.31725 27.7242C6.10226 27.2734 5.99371 26.7793 6 26.2798C6 25.8298 6.08 25.3498 6.24 24.8398L8.68 17.9198C8.87 17.4698 9.13 17.0898 9.48 16.7998C9.83 16.4998 10.16 16.3598 10.48 16.3598C10.88 16.3598 11.18 16.4598 11.38 16.6798C11.58 16.8898 11.68 17.1798 11.68 17.5198C11.68 17.9198 11.53 18.4198 11.24 18.9998C11.0415 19.3695 10.932 19.7804 10.92 20.1998C10.92 20.8998 11.19 21.4798 11.74 21.9598C12.247 22.3999 12.891 22.6504 13.5621 22.6686C14.2332 22.6869 14.8898 22.4717 15.42 22.0598C15.97 21.6498 16.42 20.9998 16.76 20.1198C17.13 19.1098 17.32 18.1198 17.32 17.1598C17.3423 16.0621 17.0413 14.9819 16.4546 14.0538C15.8679 13.1257 15.0212 12.3906 14.02 11.9398C12.7258 11.3742 11.3074 11.1525 9.90227 11.2962C8.49717 11.4399 7.15299 11.944 6 12.7598C4.45824 13.8751 3.32104 15.4616 2.76 17.2798L0.48 23.9998C0.16 24.9598 0 25.8998 0 26.7998C0 28.3198 0.41 29.6798 1.24 30.8798C2.07 32.0798 3.24 33.0198 4.74 33.6998C6.24 34.3798 7.96 34.7198 9.88 34.7198ZM33.96 34.7198C35.93 34.7198 37.86 34.0998 39.72 32.8598C41.59 31.6198 43.11 29.5198 44.28 26.5598L44.6 25.6798C44.79 25.1798 44.95 24.7098 45.08 24.2798C45.21 23.8498 45.28 23.5198 45.28 23.2798C45.28 22.6398 45.07 22.1298 44.64 21.7598C44.2082 21.3849 43.6517 21.1852 43.08 21.1998C42.47 21.1998 41.9 21.3898 41.38 21.7598C40.86 22.1298 40.48 22.6798 40.24 23.3998C39.52 25.6698 38.62 27.3298 37.54 28.3798C36.46 29.4298 35.4 29.9598 34.36 29.9598C34.01 29.9598 33.75 29.8698 33.56 29.6998C33.37 29.5298 33.28 29.2798 33.28 28.9598C33.28 28.6598 33.35 28.2798 33.48 27.7998L37.96 14.8398C38.12 14.3598 38.2 13.9198 38.2 13.5198C38.2 12.6898 37.91 12.0398 37.34 11.5598C36.7633 11.0781 36.0312 10.8222 35.28 10.8398C34.69 10.8398 34.14 10.9698 33.62 11.2398C33.1101 11.4978 32.6759 11.8837 32.36 12.3598C31.7683 12.0034 31.1284 11.734 30.46 11.5598C29.6319 11.3377 28.7773 11.2301 27.92 11.2398C26.5099 11.2394 25.129 11.6419 23.94 12.3998C22.6978 13.1758 21.7698 14.3659 21.32 15.7598L17.56 26.5198C17.29 27.3198 17.16 28.0398 17.16 28.6798C17.16 29.7798 17.43 30.7798 17.98 31.6998C18.5282 32.6353 19.3154 33.4081 20.2608 33.9388C21.2063 34.4695 22.2759 34.7391 23.36 34.7198C24.29 34.7198 25.22 34.5198 26.14 34.1398C27.0554 33.756 27.9004 33.222 28.64 32.5598C29.2246 33.3775 30.0716 33.9704 31.04 34.2398C32.08 34.5598 33.05 34.7198 33.96 34.7198ZM24.76 29.9598C24.33 29.9598 24.01 29.8298 23.78 29.5798C23.55 29.3298 23.44 28.9598 23.44 28.4798C23.44 28.0498 23.52 27.5998 23.68 27.1198L26.24 19.0798C26.8 17.2398 27.64 16.3198 28.76 16.3198C29.16 16.3198 29.53 16.5198 29.86 16.8998C30.19 17.2898 30.36 17.7998 30.36 18.4398C30.36 18.9998 30.2 19.7898 29.88 20.7998L27.96 26.7598C27.7129 27.7002 27.2071 28.5525 26.5 29.2198C25.9 29.7198 25.32 29.9598 24.76 29.9598ZM53.48 34.7198C55.67 34.7198 57.7 33.7898 59.58 31.9198C61.46 30.0498 62.98 27.4398 64.16 24.0798C64.3097 23.7086 64.3236 23.2964 64.1992 22.9159C64.0748 22.5354 63.8201 22.211 63.48 21.9998C63.001 21.6633 62.4354 21.4712 61.8505 21.4464C61.2656 21.4215 60.6858 21.5651 60.18 21.8598C59.74 22.1398 59.44 22.5598 59.28 23.1198C58.6495 24.8765 57.7814 26.5386 56.7 28.0598C55.75 29.3298 54.87 29.9598 54.04 29.9598C53.9177 29.9654 53.7961 29.9387 53.6873 29.8826C53.5785 29.8264 53.4863 29.7427 53.42 29.6398C53.2695 29.4155 53.1926 29.1499 53.2 28.8798C53.2 28.5798 53.25 28.2898 53.36 27.9998L55.72 21.4398C55.99 20.5598 56.12 19.8298 56.12 19.2398C56.12 17.5898 55.41 16.2998 53.98 15.3798C52.4576 14.4161 50.8084 13.6689 49.08 13.1598C49.2727 12.5714 49.2923 11.9399 49.1363 11.3406C48.9802 10.7414 48.6552 10.1996 48.2 9.77984C47.8892 9.4571 47.5164 9.20041 47.104 9.02514C46.6916 8.84988 46.2481 8.75964 45.8 8.75984C44.65 8.75984 43.74 9.18984 43.06 10.0398C42.3721 10.9166 42.0114 12.0058 42.04 13.1198C42.029 14.1547 42.3831 15.1602 43.04 15.9598L40.12 23.8398C40.04 24.1598 40 24.4498 40 24.7198C40 25.3598 40.21 25.8498 40.64 26.1998C41.07 26.5498 41.57 26.7198 42.16 26.7198C42.7615 26.7218 43.349 26.5386 43.8428 26.1951C44.3366 25.8516 44.7127 25.3645 44.92 24.7998L47.16 18.7998C47.29 18.8298 47.56 18.8998 47.98 19.0398C48.39 19.1698 48.79 19.3698 49.18 19.6198C49.57 19.8698 49.76 20.2698 49.76 20.7998C49.76 20.9898 49.72 21.2298 49.64 21.5198L47.88 26.3998C47.5758 27.2197 47.4135 28.0854 47.4 28.9598C47.3837 29.9979 47.6578 31.0199 48.1914 31.9104C48.725 32.801 49.4969 33.5247 50.42 33.9998C51.34 34.4798 52.36 34.7198 53.48 34.7198ZM68.68 7.55984C69.58 7.55984 70.36 7.22984 71 6.57984C71.64 5.92984 71.96 5.14984 71.96 4.23984C71.96 3.33984 71.64 2.56984 71 1.93984C70.6963 1.63529 70.3343 1.39509 69.9357 1.23358C69.5371 1.07207 69.11 0.992577 68.68 0.999844C67.78 0.999844 67 1.30984 66.36 1.93984C66.0495 2.23592 65.8039 2.59322 65.6387 2.98912C65.4734 3.38502 65.3922 3.81091 65.4 4.23984C65.4 5.13984 65.72 5.92984 66.36 6.57984C67 7.22984 67.77 7.55984 68.68 7.55984ZM64.16 34.7198C66.37 34.7198 68.44 33.8998 70.36 32.2598C72.28 30.6198 73.89 27.8798 75.2 24.0398C75.28 23.7998 75.32 23.5598 75.32 23.3198C75.32 22.7298 75.08 22.2498 74.6 21.8798C74.2502 21.623 73.8462 21.4497 73.419 21.3733C72.9917 21.2969 72.5527 21.3195 72.1356 21.4392C71.7184 21.559 71.3343 21.7727 71.0126 22.064C70.6909 22.3554 70.4403 22.7166 70.28 23.1198C69.4 25.5198 68.48 27.2598 67.5 28.3398C66.53 29.4198 65.59 29.9598 64.68 29.9598C64.23 29.9598 63.86 29.8298 63.58 29.5798C63.4426 29.4571 63.3338 29.3058 63.2612 29.1365C63.1887 28.9671 63.1541 28.784 63.16 28.5998C63.16 28.4098 63.2 28.1998 63.28 27.9598L67.68 15.3998C67.92 14.6298 68.04 14.1298 68.04 13.9198C68.0582 13.5545 67.9959 13.1896 67.8577 12.851C67.7195 12.5123 67.5086 12.2081 67.24 11.9598C66.7285 11.4882 66.0557 11.2306 65.36 11.2398C64.69 11.2398 64.06 11.4698 63.48 11.9398C62.8453 12.4803 62.3858 13.1974 62.16 13.9998C61.44 16.1298 60.61 18.4998 59.68 21.1198C59.01 23.1498 58.43 24.8498 57.92 26.2398C57.55 27.4898 57.36 28.3398 57.36 28.7998C57.36 30.6098 58.01 32.0498 59.32 33.1198C60.6929 34.2096 62.4081 34.7766 64.16 34.7198ZM85.48 34.7198C87.67 34.7198 89.77 33.8598 91.78 32.1398C93.79 30.4198 95.43 27.7198 96.68 24.0398C96.78 23.6698 96.84 23.3998 96.84 23.2398C96.845 22.9624 96.782 22.6879 96.6565 22.4403C96.531 22.1928 96.3468 21.9798 96.12 21.8198C95.6222 21.4545 95.0173 21.2645 94.4 21.2798C93.81 21.2798 93.28 21.4298 92.8 21.7398C92.32 22.0398 92 22.5098 91.84 23.1198C90.99 25.4198 90.05 27.1198 89.04 28.2598C88.03 29.3898 87.04 29.9598 86.08 29.9598C85.71 29.9598 85.41 29.8498 85.18 29.6198C85.0679 29.5071 84.9799 29.3727 84.9214 29.2249C84.863 29.077 84.8353 28.9188 84.84 28.7598C84.84 28.5198 84.91 28.1998 85.04 27.7998L93.2 4.23984C93.3965 3.72665 93.5178 3.18774 93.56 2.63984C93.56 1.80984 93.28 1.16984 92.72 0.699844C92.1725 0.237741 91.4764 -0.0108678 90.76 -0.000156025C90.0938 0.00931811 89.4566 0.274209 88.98 0.739844C88.43 1.23984 87.98 1.98984 87.64 2.99984L84 13.3198C83.3764 12.6632 82.6257 12.1401 81.7937 11.7826C80.9617 11.425 80.0656 11.2404 79.16 11.2398C77.77 11.2398 76.47 11.6298 75.26 12.3998C74.0435 13.1766 73.1322 14.3492 72.68 15.7198L68.88 26.5198C68.61 27.2398 68.48 27.9998 68.48 28.7998C68.4585 29.867 68.7402 30.9184 69.2925 31.8318C69.8448 32.7452 70.645 33.4831 71.6 33.9598C72.56 34.4598 73.61 34.7198 74.76 34.7198C75.75 34.7198 76.73 34.5398 77.7 34.1798C78.6797 33.8156 79.5722 33.2502 80.32 32.5198C80.93 33.2198 81.7 33.7498 82.62 34.1398C83.54 34.5298 84.49 34.7198 85.48 34.7198ZM77.4 28.0398C76.73 28.4898 76.15 28.6698 75.64 28.5598C75 28.3998 74.68 27.9198 74.68 27.1198C74.68 26.6898 74.76 26.2398 74.92 25.7598L77.2 19.0798C77.413 18.2708 77.8256 17.5281 78.4 16.9198C78.85 16.5198 79.3 16.3198 79.72 16.3198C80.12 16.3198 80.49 16.5198 80.82 16.8998C81.15 17.2898 81.32 17.7998 81.32 18.4398C81.2975 19.2483 81.1351 20.0468 80.84 20.7998L79.2 25.3998C78.67 26.6998 78.07 27.5898 77.4 28.0398ZM106.4 34.7198C108.37 34.7198 110.3 34.0998 112.16 32.8598C114.03 31.6198 115.55 29.5198 116.72 26.5598L117.04 25.6798C117.23 25.1798 117.39 24.7098 117.52 24.2798C117.65 23.8498 117.72 23.5198 117.72 23.2798C117.72 22.6398 117.51 22.1298 117.08 21.7598C116.648 21.3849 116.092 21.1852 115.52 21.1998C114.91 21.1998 114.34 21.3898 113.82 21.7598C113.3 22.1298 112.92 22.6798 112.68 23.3998C111.96 25.6698 111.06 27.3298 109.98 28.3798C108.9 29.4298 107.84 29.9598 106.8 29.9598C106.45 29.9598 106.19 29.8698 106 29.6998C105.81 29.5298 105.72 29.2798 105.72 28.9598C105.72 28.6598 105.79 28.2798 105.92 27.7998L110.4 14.8398C110.56 14.3598 110.64 13.9198 110.64 13.5198C110.64 12.6898 110.35 12.0398 109.78 11.5598C109.203 11.0781 108.471 10.8222 107.72 10.8398C107.13 10.8398 106.58 10.9698 106.06 11.2398C105.55 11.4978 105.116 11.8837 104.8 12.3598C104.208 12.0034 103.568 11.734 102.9 11.5598C102.072 11.3377 101.217 11.2301 100.36 11.2398C98.9499 11.2394 97.569 11.6419 96.38 12.3998C95.1377 13.1758 94.2098 14.3659 93.76 15.7598L90 26.5198C89.73 27.3198 89.6 28.0398 89.6 28.6798C89.6 29.7798 89.87 30.7798 90.42 31.6998C90.9682 32.6353 91.7554 33.4081 92.7008 33.9388C93.6463 34.4695 94.7159 34.7391 95.8 34.7198C96.73 34.7198 97.66 34.5198 98.58 34.1398C99.4954 33.756 100.34 33.222 101.08 32.5598C101.665 33.3775 102.512 33.9704 103.48 34.2398C104.52 34.5598 105.49 34.7198 106.4 34.7198ZM97.2 29.9598C96.77 29.9598 96.45 29.8298 96.22 29.5798C95.99 29.3298 95.88 28.9598 95.88 28.4798C95.88 28.0498 95.96 27.5998 96.12 27.1198L98.68 19.0798C99.24 17.2398 100.08 16.3198 101.2 16.3198C101.6 16.3198 101.97 16.5198 102.3 16.8998C102.63 17.2898 102.8 17.7998 102.8 18.4398C102.8 18.9998 102.64 19.7898 102.32 20.7998L100.4 26.7598C100.153 27.7002 99.6471 28.5525 98.94 29.2198C98.34 29.7198 97.76 29.9598 97.2 29.9598ZM127.96 34.7198C130.15 34.7198 132.25 33.8598 134.26 32.1398C136.27 30.4198 137.91 27.7198 139.16 24.0398C139.26 23.6698 139.32 23.3998 139.32 23.2398C139.325 22.9624 139.262 22.6879 139.137 22.4403C139.011 22.1928 138.827 21.9798 138.6 21.8198C138.102 21.4545 137.497 21.2645 136.88 21.2798C136.29 21.2798 135.76 21.4298 135.28 21.7398C134.8 22.0398 134.48 22.5098 134.32 23.1198C133.47 25.4198 132.53 27.1198 131.52 28.2598C130.51 29.3898 129.52 29.9598 128.56 29.9598C128.19 29.9598 127.89 29.8498 127.66 29.6198C127.548 29.5071 127.46 29.3727 127.401 29.2249C127.343 29.077 127.315 28.9188 127.32 28.7598C127.32 28.5198 127.39 28.1998 127.52 27.7998L135.68 4.23984C135.876 3.72665 135.998 3.18774 136.04 2.63984C136.04 1.80984 135.76 1.16984 135.2 0.699844C134.652 0.237741 133.956 -0.0108678 133.24 -0.000156025C132.574 0.00931811 131.937 0.274209 131.46 0.739844C130.91 1.23984 130.46 1.98984 130.12 2.99984L126.48 13.3198C125.856 12.6632 125.106 12.1401 124.274 11.7826C123.442 11.425 122.546 11.2404 121.64 11.2398C120.25 11.2398 118.95 11.6298 117.74 12.3998C116.524 13.1766 115.612 14.3492 115.16 15.7198L111.36 26.5198C111.09 27.2398 110.96 27.9998 110.96 28.7998C110.938 29.867 111.22 30.9184 111.773 31.8318C112.325 32.7452 113.125 33.4831 114.08 33.9598C115.04 34.4598 116.09 34.7198 117.24 34.7198C118.23 34.7198 119.21 34.5398 120.18 34.1798C121.16 33.8156 122.052 33.2502 122.8 32.5198C123.41 33.2198 124.18 33.7498 125.1 34.1398C126.02 34.5298 126.97 34.7198 127.96 34.7198ZM119.88 28.0398C119.21 28.4898 118.63 28.6698 118.12 28.5598C117.48 28.3998 117.16 27.9198 117.16 27.1198C117.16 26.6898 117.24 26.2398 117.4 25.7598L119.68 19.0798C119.893 18.2708 120.306 17.5281 120.88 16.9198C121.33 16.5198 121.78 16.3198 122.2 16.3198C122.6 16.3198 122.97 16.5198 123.3 16.8998C123.63 17.2898 123.8 17.7998 123.8 18.4398C123.778 19.2483 123.615 20.0468 123.32 20.7998L121.68 25.3998C121.15 26.6998 120.55 27.5898 119.88 28.0398ZM142.96 34.4398C143.86 34.4398 144.64 34.1198 145.28 33.4798C145.92 32.8398 146.24 32.0698 146.24 31.1598C146.24 30.2598 145.92 29.4798 145.28 28.8398C144.979 28.5298 144.618 28.2846 144.219 28.1195C143.82 27.9544 143.392 27.8728 142.96 27.8798C142.06 27.8798 141.28 28.1898 140.64 28.8198C140 29.4498 139.68 30.2198 139.68 31.1598C139.68 32.0598 140 32.8398 140.64 33.4798C141.28 34.1198 142.05 34.4398 142.96 34.4398Z" fill="black"/>
</g>
<defs>
<clipPath id="clip0_43_4194">
<rect width="147" height="35" fill="white"/>
</clipPath>
</defs>
</svg>
