<svg width="156" height="34" viewBox="0 0 156 34" fill="none" xmlns="http://www.w3.org/2000/svg">
<g clip-path="url(#clip0_43_4184)">
<path d="M8.98297 34C18.5985 34 24.4185 30.1168 24.4185 21.8756V0.733503H6.36821V6.1269H17.6707V21.703C17.6707 25.6294 14.1703 28.132 7.50689 28.132C5.06083 28.132 2.53041 27.7868 0 26.967V32.6624C2.44607 33.4822 5.52474 34 8.98297 34ZM47.8248 33.8706C59.296 33.8706 66.592 27.1827 66.592 16.9137C66.592 6.68782 59.296 0 47.8248 0C36.3536 0 29.0576 6.68782 29.0576 16.9137C29.0576 27.1827 36.3536 33.8706 47.8248 33.8706ZM47.8248 28.1751C40.5288 28.1751 35.8054 23.7741 35.8054 16.9137C35.8054 10.0533 40.5288 5.60914 47.8248 5.60914C55.1208 5.60914 59.8443 10.0533 59.8443 16.9137C59.8443 23.7741 55.1208 28.1751 47.8248 28.1751ZM98.0114 33.0939V27.4848H78.1898V0.733503H71.442V33.0939H98.0114ZM109.398 33.0939V0.733503H102.65V33.0939H109.398ZM144.107 33.0939V27.4848H122.05V19.3731H141.492V13.9365H122.05V6.34264H143.77V0.733503H115.303V33.0939H144.107ZM156 33.0939V26.1904H148.83V33.0939H156Z" fill="black"/>
</g>
<defs>
<clipPath id="clip0_43_4184">
<rect width="156" height="34" fill="white"/>
</clipPath>
</defs>
</svg>
