<svg width="126" height="34" viewBox="0 0 126 34" fill="none" xmlns="http://www.w3.org/2000/svg">
<g clip-path="url(#clip0_43_4222)">
<path d="M37.305 32.6029C38.1712 32.6029 38.699 32.4209 38.8885 32.0568C38.9968 31.8545 39.0611 31.6758 39.0814 31.5207C39.1017 31.3656 39.1118 31.133 39.1118 30.8228V28.5371H41.6494C42.854 28.5371 44.0179 28.1055 45.1412 27.2425C45.6961 26.8244 46.1495 26.2614 46.5014 25.5534C46.8533 24.8454 47.0292 24.0532 47.0292 23.1766C47.0292 22.3001 46.8533 21.5044 46.5014 20.7897C46.1495 20.075 45.6961 19.5086 45.1412 19.0905C44.0179 18.2275 42.8607 17.7959 41.6697 17.7959H37.3253C36.4592 17.7959 35.9313 17.978 35.7419 18.3421C35.6336 18.5444 35.5693 18.7231 35.549 18.8781C35.5287 19.0332 35.5186 19.2658 35.5186 19.576V30.8026C35.5186 31.2746 35.5592 31.6252 35.6404 31.8545C35.8028 32.3534 36.3577 32.6029 37.305 32.6029ZM41.6697 24.9567H39.1118V21.3763H41.6494C42.069 21.3763 42.475 21.528 42.8675 21.8314C43.26 22.1349 43.4562 22.5833 43.4562 23.1766C43.4562 23.77 43.26 24.215 42.8675 24.5117C42.475 24.8084 42.0758 24.9567 41.6697 24.9567ZM53.2007 32.8861C56.0834 32.8861 57.5248 32.286 57.5248 31.0858C57.5248 30.8296 57.4368 30.5194 57.2609 30.1553C56.9496 29.5485 56.5774 29.245 56.1443 29.245C55.9278 29.245 55.6571 29.3192 55.3323 29.4676L55.109 29.5485C54.6624 29.7103 54.0466 29.7912 53.2616 29.7912C52.815 29.7912 52.3684 29.6631 51.9217 29.4069C51.4751 29.1506 51.2518 28.8337 51.2518 28.4562H56.0631C56.5639 28.4562 57.0207 28.2572 57.4335 27.8594C57.8462 27.4616 58.0526 26.8514 58.0526 26.0288C58.0526 25.1927 57.8226 24.424 57.3624 23.7228C56.4827 22.4012 55.1022 21.7404 53.221 21.7404C51.5699 21.7404 50.1928 22.2495 49.0898 23.2676C47.9867 24.2858 47.4352 25.6444 47.4352 27.3436C47.4352 28.6921 47.8615 29.9126 48.7142 31.0049C49.1473 31.5713 49.7529 32.0264 50.5311 32.3703C51.3093 32.7142 52.1992 32.8861 53.2007 32.8861ZM53.7691 26.6154H51.2112C51.2112 26.2108 51.4277 25.8299 51.8608 25.4725C52.2939 25.1151 52.7304 24.9365 53.1702 24.9365C53.6101 24.9365 53.9485 25.0309 54.1853 25.2197C54.4221 25.4085 54.5406 25.6579 54.5406 25.9681C54.5406 26.3996 54.2834 26.6154 53.7691 26.6154ZM64.8332 32.6231C65.1309 32.6231 65.3576 32.613 65.5132 32.5928C65.6689 32.5726 65.8482 32.5153 66.0512 32.4209C66.4302 32.2321 66.6196 31.7129 66.6196 30.8633C66.6196 30.1351 66.464 29.6833 66.1527 29.508C65.9632 29.4001 65.7839 29.3361 65.6147 29.3158C65.4456 29.2956 65.202 29.2855 64.8839 29.2855C64.5659 29.2855 64.3493 29.2046 64.2343 29.0428C64.1192 28.8809 64.0617 28.618 64.0617 28.2539V25.4624L65.3813 25.5433C65.6926 25.5433 65.926 25.5332 66.0817 25.513C66.2373 25.4927 66.4166 25.4354 66.6196 25.341C66.9851 25.1522 67.1678 24.633 67.1678 23.7835C67.1678 22.9204 66.9918 22.4012 66.6399 22.2259C66.4369 22.118 66.2576 22.054 66.102 22.0337C65.9463 22.0135 65.7162 22.0034 65.4117 22.0034C65.1072 22.0034 64.6572 22.0304 64.0617 22.0843V20.1019C64.0617 19.63 64.0279 19.2861 63.9602 19.0703C63.7843 18.5714 63.2361 18.3219 62.3158 18.3219C61.4497 18.3219 60.9286 18.4904 60.7527 18.8276C60.6444 19.0029 60.5801 19.1647 60.5598 19.313C60.5395 19.4614 60.5294 19.6906 60.5294 20.0008V22.0843L59.8594 22.0034C59.5346 22.0034 59.2639 22.091 59.0474 22.2664C58.9256 22.3742 58.8308 22.5529 58.7632 22.8024C58.6955 23.0519 58.6617 23.4531 58.6617 24.006C58.6617 24.5589 58.7598 24.9499 58.956 25.1792C59.1523 25.4085 59.3993 25.5231 59.697 25.5231C59.9948 25.5231 60.2722 25.5028 60.5294 25.4624V28.4562C60.5294 29.9665 60.8948 31.0386 61.6256 31.6724C62.3564 32.3062 63.4256 32.6231 64.8332 32.6231ZM82.5762 32.6029C82.9687 32.6029 83.2935 32.5625 83.5506 32.4815C84.0649 32.3197 84.3221 31.7736 84.3221 30.8431V19.6165C84.3221 19.3063 84.3119 19.0703 84.2916 18.9085C84.2713 18.7467 84.207 18.5646 84.0988 18.3623C83.9093 17.9982 83.3849 17.8162 82.5255 17.8162C81.666 17.8162 81.1213 17.9982 80.8912 18.3623C80.1198 19.3333 78.5837 21.3359 76.2829 24.3701L71.6746 18.3421L71.5528 18.2207C71.4716 18.1263 71.299 18.0353 71.0351 17.9477C70.7712 17.86 70.4565 17.8162 70.0911 17.8162C69.2385 17.8162 68.7106 17.9915 68.5076 18.3421C68.3994 18.5444 68.3351 18.7231 68.3148 18.8781C68.2945 19.0332 68.2843 19.2658 68.2843 19.576V30.8026C68.2843 31.1263 68.2945 31.369 68.3148 31.5308C68.3351 31.6926 68.3994 31.868 68.5076 32.0568C68.7106 32.4209 69.2249 32.6029 70.0505 32.6029C70.9031 32.6029 71.431 32.4209 71.634 32.0568C71.7423 31.868 71.8065 31.696 71.8268 31.5409C71.8471 31.3859 71.8573 31.1532 71.8573 30.8431V24.0262C71.925 24.1071 72.358 24.6971 73.1566 25.7962C73.9551 26.8952 74.4897 27.6133 74.7603 27.9504L74.9227 28.173C75.031 28.3078 75.2103 28.446 75.4607 28.5876C75.7111 28.7292 75.9885 28.8 76.2931 28.8C76.5976 28.8 76.8818 28.7225 77.1457 28.5674C77.4096 28.4123 77.5754 28.291 77.6431 28.2033C77.7107 28.1156 77.8325 27.9572 78.0085 27.7279L78.0498 27.6736C78.2446 27.4156 78.6436 26.8639 79.2468 26.0187C79.8965 25.1084 80.3905 24.4442 80.7288 24.0262V30.8026C80.7288 31.2746 80.7626 31.6252 80.8303 31.8545C80.898 32.0298 80.9927 32.1646 81.1145 32.259C81.2363 32.3534 81.4123 32.4343 81.6424 32.5018C81.8724 32.5692 82.1837 32.6029 82.5762 32.6029ZM94.8278 32.5827C95.5654 32.5827 96.029 32.4074 96.2185 32.0568C96.3132 31.8545 96.3707 31.6758 96.391 31.5207C96.4113 31.3656 96.4215 31.133 96.4215 30.8228V23.743C96.4215 23.4328 96.4113 23.2002 96.391 23.0451C96.3707 22.8901 96.3098 22.7114 96.2083 22.5091C96.1068 22.3068 95.9275 22.1652 95.6703 22.0843C95.4132 22.0034 95.0207 21.9629 94.4929 21.9629C93.5049 21.9629 92.9703 22.3405 92.8891 23.0957C92.7944 22.9608 92.6726 22.8226 92.5237 22.681C92.3748 22.5394 92.1109 22.3877 91.7319 22.2259C91.353 22.0641 90.9334 21.9832 90.4733 21.9832C89.2688 21.9832 88.1624 22.5125 87.1541 23.5711C86.1458 24.6297 85.6417 25.8636 85.6417 27.2728C85.6417 28.682 86.1424 29.9193 87.1439 30.9847C88.1454 32.05 89.2315 32.5827 90.4022 32.5827C91.5729 32.5827 92.4086 32.2253 92.9094 31.5106C92.95 31.8612 93.0955 32.1276 93.3459 32.3096C93.5962 32.4917 94.0902 32.5827 94.8278 32.5827ZM91.0011 29.0428C90.5004 29.0428 90.074 28.8641 89.7221 28.5067C89.3703 28.1494 89.1943 27.7482 89.1943 27.3032C89.1943 26.8581 89.3601 26.4468 89.6917 26.0692C90.0233 25.6916 90.4564 25.5028 90.991 25.5028C91.5255 25.5028 91.9519 25.6916 92.2699 26.0692C92.588 26.4468 92.747 26.8548 92.747 27.293C92.747 27.7313 92.5812 28.1325 92.2496 28.4966C91.918 28.8607 91.5019 29.0428 91.0011 29.0428ZM106.937 32.6029C107.804 32.6029 108.331 32.4209 108.521 32.0568C108.616 31.868 108.673 31.696 108.693 31.5409C108.714 31.3859 108.724 31.1532 108.724 30.8431V27.2829C108.724 25.7995 108.274 24.542 107.374 23.5104C106.474 22.4787 105.347 21.9629 103.994 21.9629C103.439 21.9629 102.931 22.118 102.471 22.4282C102.295 22.5361 102.113 22.6777 101.923 22.853C101.734 23.0283 101.612 23.1631 101.558 23.2575C101.558 22.9339 101.49 22.6574 101.355 22.4282C101.165 22.118 100.658 21.9629 99.832 21.9629C98.9794 21.9629 98.4583 22.1315 98.2689 22.4686C98.1606 22.6574 98.0963 22.8294 98.076 22.9844C98.0557 23.1395 98.0455 23.3654 98.0455 23.6621V30.8228C98.0455 31.133 98.0557 31.3656 98.076 31.5207C98.0963 31.6758 98.1538 31.8545 98.2486 32.0568C98.438 32.4209 98.9591 32.6029 99.8117 32.6029C100.678 32.6029 101.199 32.4209 101.375 32.0568C101.483 31.868 101.547 31.696 101.568 31.5409C101.588 31.3859 101.598 31.1532 101.598 30.8431V27.2627C101.598 26.7368 101.764 26.312 102.096 25.9883C102.427 25.6647 102.86 25.5028 103.395 25.5028C103.929 25.5028 104.356 25.6579 104.674 25.9681C104.992 26.2783 105.151 26.7098 105.151 27.2627V30.8228C105.151 31.2813 105.191 31.6252 105.273 31.8545C105.422 32.3534 105.976 32.6029 106.937 32.6029ZM112.124 20.5267C112.551 20.5267 112.892 20.4863 113.149 20.4054C113.407 20.3245 113.583 20.1896 113.677 20.0008C113.786 19.7985 113.85 19.6198 113.87 19.4648C113.89 19.3097 113.901 19.0771 113.901 18.7669C113.901 18.4567 113.89 18.2241 113.87 18.069C113.85 17.9139 113.786 17.7353 113.677 17.533C113.501 17.1689 112.987 16.9868 112.134 16.9868C111.268 16.9868 110.74 17.1689 110.551 17.533C110.456 17.7218 110.399 17.8937 110.378 18.0488C110.358 18.2039 110.348 18.4365 110.348 18.7467C110.348 19.0568 110.358 19.2894 110.378 19.4445C110.399 19.5996 110.46 19.7783 110.561 19.9806C110.663 20.1829 110.842 20.3245 111.099 20.4054C111.356 20.4863 111.698 20.5267 112.124 20.5267ZM112.114 32.6231C112.98 32.6231 113.501 32.4478 113.677 32.0972C113.786 31.8949 113.85 31.7162 113.87 31.5612C113.89 31.4061 113.901 31.1735 113.901 30.8633V23.7835C113.901 23.5272 113.894 23.3317 113.88 23.1968C113.867 22.8058 113.745 22.5158 113.515 22.327C113.244 22.0978 112.784 21.9832 112.134 21.9832C111.268 21.9832 110.74 22.1585 110.551 22.5091C110.456 22.7114 110.399 22.8901 110.378 23.0451C110.358 23.2002 110.348 23.4328 110.348 23.743V30.8431C110.348 31.1667 110.358 31.4027 110.378 31.5511C110.399 31.6994 110.456 31.8747 110.551 32.077C110.74 32.4411 111.261 32.6231 112.114 32.6231ZM124.406 32.5827C125.144 32.5827 125.607 32.4074 125.797 32.0568C125.892 31.8545 125.949 31.6758 125.97 31.5207C125.99 31.3656 126 31.133 126 30.8228V23.743C126 23.4328 125.99 23.2002 125.97 23.0451C125.949 22.8901 125.888 22.7114 125.787 22.5091C125.685 22.3068 125.506 22.1652 125.249 22.0843C124.992 22.0034 124.599 21.9629 124.071 21.9629C123.083 21.9629 122.549 22.3405 122.468 23.0957C122.373 22.9608 122.251 22.8226 122.102 22.681C121.953 22.5394 121.689 22.3877 121.31 22.2259C120.932 22.0641 120.512 21.9832 120.052 21.9832C118.847 21.9832 117.741 22.5125 116.733 23.5711C115.724 24.6297 115.22 25.8636 115.22 27.2728C115.22 28.682 115.721 29.9193 116.722 30.9847C117.724 32.05 118.81 32.5827 119.981 32.5827C121.151 32.5827 121.987 32.2253 122.488 31.5106C122.529 31.8612 122.674 32.1276 122.924 32.3096C123.175 32.4917 123.669 32.5827 124.406 32.5827ZM120.58 29.0428C120.079 29.0428 119.653 28.8641 119.301 28.5067C118.949 28.1494 118.773 27.7482 118.773 27.3032C118.773 26.8581 118.939 26.4468 119.27 26.0692C119.602 25.6916 120.035 25.5028 120.569 25.5028C121.104 25.5028 121.53 25.6916 121.848 26.0692C122.166 26.4468 122.326 26.8548 122.326 27.293C122.326 27.7313 122.16 28.1325 121.828 28.4966C121.497 28.8607 121.08 29.0428 120.58 29.0428Z" fill="black"/>
<path d="M0.923668 14.6761C1.51886 13.3665 2.5849 11.5869 3.78852 10.5271C5.37042 9.1379 7.36243 8.28523 9.11603 8.25072H9.25359C11.4227 8.25072 11.8328 9.14851 11.883 9.68509C12.0364 11.2788 10.153 11.4701 9.53134 11.5338C7.39658 11.749 5.62696 13.2285 4.91522 15.3958C4.45625 16.7691 4.40733 18.2473 4.77502 19.6485C5.00781 20.4467 5.42446 21.1785 5.99188 21.7841C5.6242 22.2768 5.2988 22.8001 5.01841 23.3486C4.95624 23.4748 4.94566 23.6209 4.99063 23.7537C5.0356 23.8878 5.13083 23.998 5.25649 24.0605C5.32923 24.0963 5.40991 24.1162 5.49192 24.1162C5.69296 24.1162 5.8768 24.002 5.96542 23.8214C6.23524 23.2941 6.55268 22.7935 6.91244 22.3233C6.98122 22.2436 7.06587 22.1453 7.06852 22.14C8.07239 20.9859 9.15435 19.9009 10.3064 18.8941C11.961 17.392 13.404 15.6708 14.5971 13.7782C15.2148 12.7888 15.7015 11.7236 16.0467 10.6094C16.2504 9.96391 16.4355 9.25733 16.626 8.38609C17.2186 5.64487 17.7635 4.63016 17.901 4.4044C19.6734 0.574008 22.8981 0.000132947 24.6676 0.000132947C25.0498 -0.00223391 25.4308 0.0269989 25.8077 0.0880893C27.7229 0.242152 29.1884 2.25821 29.4609 2.65931C30.236 3.3207 31.3919 3.49335 32.0215 3.5385C32.5017 3.56507 32.9553 3.76561 33.2992 4.10429C33.7185 4.57178 33.9169 5.19731 33.8441 5.82286C33.6642 7.31565 32.0083 8.52688 31.9369 8.57737C31.9236 8.58667 31.9104 8.59597 31.8972 8.60394C31.3681 8.91471 30.4555 9.19363 29.1884 9.43533C28.6011 9.54689 27.8472 9.80987 27.5457 10.0941C25.4532 12.0756 27.5033 15.7145 27.5113 15.7278C28.2347 16.8142 28.3392 18.2007 27.789 19.3855C27.5523 19.8344 27.252 20.2461 26.8949 20.6073C26.7362 20.7787 26.5854 20.958 26.4452 21.1439C26.1675 21.5423 25.9638 21.9859 25.8421 22.4561C25.4189 24.0392 25.3924 25.9862 25.7654 28.406C25.9003 28.9439 26.19 29.43 26.596 29.8058L26.6833 29.8829C27.3155 30.43 28.2705 31.2561 28.1171 32.3797C27.9689 33.4369 26.6145 34 25.694 34C22.5778 34 21.4825 31.2535 21.4483 31.1605C20.779 29.6411 21.3055 26.6875 21.3689 26.3553C21.3716 26.3341 21.3769 26.3115 21.3848 26.2916C22.1123 24.0258 21.0092 21.2049 20.9986 21.1757C20.9933 21.1624 20.988 21.1491 20.9854 21.1358C20.8253 20.7055 20.8796 20.2261 21.1309 19.8422C21.5885 19.1702 22.5514 19.0613 22.7207 19.048L24.292 18.8541C24.5486 18.8276 24.6068 18.7346 24.628 18.6974C24.7205 18.4411 24.7258 18.1596 24.6412 17.9005C24.1941 17.6416 23.8251 17.267 23.5698 16.8168C23.5169 16.7371 23.464 16.6574 23.4111 16.5857C23.2524 16.3745 23.0579 16.1926 22.8344 16.0518L21.4456 15.3346C21.2869 15.251 21.1811 15.0942 21.1626 14.9149L21.0965 14.2482C18.0411 15.6003 17.8956 19.3084 17.9856 20.9128C18.0451 22.7563 17.2092 24.5148 15.745 25.6276C14.634 26.4112 13.515 27.7977 13.515 29.1231V30.1776H14.9779C15.0004 30.1776 15.0242 30.1802 15.0466 30.1829C17.2925 30.4831 17.938 32.454 17.9644 33.4554C17.9671 33.5988 17.9128 33.7356 17.8123 33.8379C17.7131 33.9401 17.5782 33.9986 17.4354 34H6.9415C6.85288 34 6.76559 33.9786 6.68755 33.9361C4.79086 32.8975 3.88619 31.086 4.06605 28.7009C4.07531 28.2294 3.88881 27.7765 3.55023 27.4498C0.161533 24.5094 -0.991497 18.8995 0.923668 14.6761ZM32.5376 5.57845C32.7519 5.57845 32.945 5.44963 33.027 5.25041C33.1077 5.05253 33.0627 4.82409 32.9119 4.67137C32.7598 4.51996 32.5323 4.47481 32.3353 4.55582C32.1369 4.63817 32.0086 4.83207 32.0086 5.04722C32.0086 5.188 32.0641 5.32346 32.1633 5.42308C32.2625 5.5227 32.3974 5.57845 32.5376 5.57845ZM26.9853 3.71909C27.1995 3.71909 27.3926 3.59026 27.4747 3.39105C27.5553 3.19316 27.5104 2.96472 27.3596 2.812C27.2075 2.6606 26.98 2.61544 26.7829 2.69645C26.5845 2.7788 26.4562 2.9727 26.4562 3.18785C26.4562 3.32863 26.5118 3.4641 26.611 3.56372C26.7102 3.66332 26.8451 3.71909 26.9853 3.71909ZM21.1736 8.47903C21.5571 8.98769 22.1298 9.31973 22.7607 9.39807C23.2845 9.50299 23.8268 9.38213 24.258 9.06604C25.3611 8.16825 25.0304 6.38592 24.7341 5.40327C24.0569 3.1508 24.5463 1.80951 25.0807 1.07614C24.959 1.06817 24.1416 1.07614 23.84 1.11333C23.8175 1.12794 23.7937 1.1399 23.7686 1.15052C22.9115 1.51442 22.3295 2.88504 21.9036 3.88908C21.8031 4.1308 21.7052 4.35658 21.6153 4.55313C20.9593 5.95296 20.4514 7.39791 21.1736 8.47903Z" fill="black"/>
</g>
<defs>
<clipPath id="clip0_43_4222">
<rect width="126" height="34" fill="white"/>
</clipPath>
</defs>
</svg>
