<svg width="160" height="34" viewBox="0 0 160 34" fill="none" xmlns="http://www.w3.org/2000/svg">
<g clip-path="url(#clip0_43_4211)">
<path fill-rule="evenodd" clip-rule="evenodd" d="M10.9769 34C13.4358 34 15.6312 33.6548 17.4753 32.9645C19.3194 32.2741 20.6367 31.3249 21.6026 30.1168C22.5686 28.9086 23.0077 27.5279 23.0077 25.9746C23.0077 24.1624 22.4808 22.6954 21.5148 21.6599C20.5488 20.6244 19.4072 19.934 18.09 19.5025C16.7728 19.0711 15.0165 18.7259 12.9967 18.3807C11.1526 18.1218 9.74753 17.7766 8.95719 17.5178C8.16685 17.2589 7.63996 16.6548 7.63996 15.8782C7.63996 15.1878 7.99122 14.6701 8.86937 14.2386C9.65971 13.8071 10.8891 13.5482 12.4698 13.5482C15.1043 13.5482 17.5631 14.1523 19.8463 15.4467L22.3052 10.269C21.1636 9.57868 19.6707 9.06091 17.9144 8.62944C16.1581 8.28426 14.3139 8.02538 12.5576 8.02538C10.0988 8.02538 7.99122 8.37056 6.23491 9.06091C4.47859 9.75127 2.89791 10.8731 1.93194 12.0812C0.965971 13.2893 0.526893 14.7563 0.526893 16.3096C0.526893 18.2081 1.05379 19.6751 2.01976 20.7107C2.98573 21.7462 4.21515 22.4365 5.53238 22.868C6.84962 23.2995 8.60593 23.6447 10.7135 23.9036C12.4698 24.1624 13.787 24.4213 14.6652 24.6802C15.5434 25.0254 15.9824 25.5431 15.9824 26.2335C15.9824 27.7868 14.4018 28.4772 11.3282 28.4772C9.74753 28.4772 8.16685 28.2183 6.58617 27.7868C5.00549 27.3553 3.60044 26.7513 2.45884 26.0609L0 31.2386C1.22942 32.0152 2.8101 32.6193 4.82986 33.1371C6.84962 33.6548 8.86938 34 10.9769 34ZM39.4292 34C42.1515 34 44.4347 33.4822 46.4544 32.3604C48.4742 31.2386 49.9671 29.6853 50.8452 27.7005L45.1372 24.5939C43.82 26.9239 41.888 28.0457 39.4292 28.0457C37.4973 28.0457 35.9166 27.4416 34.5993 26.1472C33.2821 24.8528 32.6674 23.2132 32.6674 21.0558C32.6674 18.8985 33.2821 17.2589 34.5993 15.9645C35.8288 14.7563 37.4973 14.066 39.4292 14.066C41.888 14.066 43.82 15.1878 45.1372 17.5178L50.8452 14.4975C49.9671 12.4264 48.4742 10.8731 46.4544 9.75127C44.4347 8.62944 42.0637 8.11168 39.4292 8.11168C36.7069 8.11168 34.2481 8.62944 32.1405 9.75127C30.0329 10.8731 28.2766 12.4264 27.0472 14.3249C25.8178 16.2234 25.2031 18.467 25.2031 20.9695C25.2031 23.4721 25.8178 25.7157 27.0472 27.6142C28.2766 29.5127 29.9451 31.066 32.1405 32.1878C34.3359 33.3096 36.7069 34 39.4292 34ZM65.5104 34C67.0911 34 68.584 33.7411 69.9012 33.1371C71.2184 32.533 72.4479 31.7563 73.4138 30.6345V33.6548H80.4391V8.54315H73.0626V20.9695C73.0626 23.2132 72.5357 24.8528 71.4819 26.0609C70.4281 27.1827 69.023 27.7868 67.1789 27.7868C63.7541 27.7868 61.9978 25.802 61.9978 21.7462V8.54315H54.6213V22.6954C54.6213 26.4061 55.5873 29.2538 57.5192 31.1523C59.4512 33.0508 62.0856 34 65.5104 34ZM98.9682 34C101.69 34 104.061 33.4822 106.169 32.3604C108.277 31.2386 109.945 29.6853 111.175 27.7868C112.404 25.802 113.019 23.6447 113.019 21.1421C113.019 18.6396 112.404 16.3959 111.175 14.4975C109.945 12.599 108.277 11.0457 106.169 9.92386C104.061 8.80203 101.69 8.28426 98.9682 8.28426C96.2459 8.28426 93.8749 8.80203 91.7673 9.92386C89.6597 11.0457 87.9912 12.599 86.7618 14.4975C85.5324 16.3959 84.9177 18.6396 84.9177 21.1421C84.9177 23.6447 85.5324 25.8883 86.7618 27.7868C87.9912 29.7716 89.6597 31.2386 91.7673 32.3604C93.8749 33.4822 96.3337 34 98.9682 34ZM98.9682 28.0457C97.0362 28.0457 95.5434 27.4416 94.3139 26.1472C93.0845 24.8528 92.4698 23.2132 92.4698 21.0558C92.4698 18.8985 93.0845 17.2589 94.3139 15.9645C95.5434 14.6701 97.124 14.066 98.9682 14.066C100.812 14.066 102.393 14.6701 103.622 15.9645C104.852 17.2589 105.467 18.8985 105.467 21.0558C105.467 23.2132 104.852 24.8528 103.622 26.1472C102.393 27.4416 100.9 28.0457 98.9682 28.0457ZM145.247 34C149.023 34 151.658 32.8782 153.063 30.5482V33.6548H160V19.3299C160 15.6193 158.946 12.7716 156.839 10.9594C154.731 9.14721 151.658 8.19797 147.706 8.19797C145.686 8.19797 143.666 8.45685 141.734 8.97462C139.802 9.49239 138.134 10.269 136.729 11.2183L139.363 16.3096C140.242 15.6193 141.383 15.0152 142.7 14.5838C144.018 14.1523 145.335 13.9797 146.74 13.9797C148.672 13.9797 150.165 14.4112 151.131 15.2741C152.097 16.1371 152.623 17.3452 152.623 18.8985H146.74C143.052 18.8985 140.242 19.5888 138.485 20.8832C136.729 22.1777 135.763 24.0761 135.763 26.4061C135.763 27.8731 136.114 29.1675 136.904 30.2893C137.695 31.4112 138.749 32.3604 140.241 32.9645C141.734 33.5685 143.315 34 145.247 34ZM147.091 29.1675C145.774 29.1675 144.808 28.9086 144.018 28.3909C143.315 27.8731 142.876 27.0964 142.876 26.1472C142.876 24.1624 144.369 23.2132 147.442 23.2132H152.536V25.802C152.097 26.9239 151.394 27.7868 150.428 28.3046C149.462 28.8223 148.321 29.1675 147.091 29.1675ZM121.888 0H129.791L122.766 26.7513H132.426V33.6548H114.863V26.7513L121.888 0Z" fill="black"/>
</g>
<defs>
<clipPath id="clip0_43_4211">
<rect width="160" height="34" fill="white"/>
</clipPath>
</defs>
</svg>
