<svg width="171" height="34" viewBox="0 0 171 34" fill="none" xmlns="http://www.w3.org/2000/svg">
<g clip-path="url(#clip0_43_4234)">
<path d="M7.36419e-05 8.45474L8.44578 0.000148647H19.4274C18.2613 0.56681 17.1858 1.3148 16.2348 2.2668L2.37761 16.1387C0.831748 14.2548 -0.00906034 11.89 7.36419e-05 9.45207V8.45474ZM9.37412 33.9999H8.44578L0.000148489 25.5453V14.552C0.56621 15.7193 1.31341 16.796 2.26439 17.748L16.1216 31.6199C14.2397 33.1674 11.8774 34.0091 9.44205 33.9999H9.37412ZM33.9639 25.5453L25.5182 33.9999H14.5366C15.7027 33.4332 16.7782 32.6852 17.7292 31.7332L31.5864 17.8613C33.1322 19.7452 33.973 22.11 33.9639 24.5479V25.5453ZM31.6996 16.252L17.8424 2.38013C19.7243 0.83263 22.0865 -0.00906995 24.5219 7.372e-05H25.5182L33.9638 8.45474V19.448C33.3936 18.263 32.6282 17.1826 31.6996 16.252Z" fill="black"/>
<path d="M44.6284 11.1069V7.93357H59.5158V11.1069H53.9684V26.0667H50.1871V11.1069H44.6284ZM67.2822 26.3387C65.8897 26.3387 64.6783 26.0554 63.6707 25.4774C62.6676 24.9219 61.8549 24.0767 61.3385 23.0521C60.775 21.888 60.4993 20.6053 60.5347 19.3121C60.5347 17.9295 60.8065 16.7055 61.3385 15.6402C61.8499 14.6151 62.6434 13.7579 63.6254 13.1695C64.6104 12.5802 65.7765 12.2855 67.1011 12.2855C68.0068 12.2855 68.8445 12.4329 69.6144 12.7162C71.2041 13.3025 72.4522 14.5644 73.0221 16.1615C73.3504 17.0228 73.5089 18.0428 73.5089 19.1988V20.2188H62.0405V17.9068H71.6975L69.9427 18.5188C69.9427 17.8275 69.8408 17.2268 69.6257 16.7055C69.4219 16.2068 69.1049 15.7988 68.686 15.5268C68.2231 15.2337 67.6824 15.0876 67.135 15.1075C66.5237 15.1075 66.0029 15.2548 65.5727 15.5382C65.1538 15.8215 64.8255 16.2068 64.5991 16.6942C64.3726 17.1815 64.2594 17.7368 64.2594 18.3715V20.0148C64.2594 20.7515 64.384 21.3748 64.6443 21.9074C65.1327 22.9432 66.196 23.5827 67.3388 23.5281C67.769 23.5281 68.1426 23.4714 68.4822 23.3468C68.8219 23.2334 69.1162 23.0521 69.3653 22.8141C69.6144 22.5874 69.7955 22.2928 69.9314 21.9641L73.3957 22.1908C73.2387 23.0007 72.8717 23.755 72.3315 24.3781C71.7994 25.0014 71.0974 25.4888 70.2484 25.8287C69.3993 26.1687 68.4143 26.3501 67.3048 26.3501L67.2822 26.3387ZM81.2299 26.3387C79.977 26.3699 78.7396 26.0563 77.6524 25.4321C76.667 24.8495 75.8693 23.9959 75.3542 22.9728C74.8037 21.8368 74.5321 20.5857 74.5617 19.3235C74.5617 17.9295 74.8221 16.7055 75.3655 15.6402C75.8814 14.611 76.6834 13.753 77.6751 13.1695C78.7581 12.5578 79.9869 12.2522 81.2299 12.2855C82.4187 12.2855 83.4489 12.5009 84.3433 12.9315C85.2263 13.3622 85.9283 13.9629 86.449 14.7448C86.9698 15.5268 87.2528 16.4448 87.2981 17.4988H83.7546C83.7006 17.0734 83.5579 16.6641 83.3357 16.2975C83.1319 15.9575 82.8489 15.6968 82.4979 15.5042C82.1583 15.3228 81.7394 15.2322 81.2865 15.2322C80.6978 15.2322 80.1884 15.3908 79.7582 15.6968C79.3167 16.0142 78.9883 16.4675 78.7393 17.0795C78.4857 17.7839 78.3666 18.5297 78.3883 19.2781C78.3883 20.1281 78.5015 20.8648 78.7506 21.4881C78.977 22.1114 79.3167 22.5761 79.7582 22.9048C80.1884 23.2221 80.6978 23.3921 81.2865 23.3921C81.9319 23.3921 82.4753 23.1881 82.9281 22.7688C83.3697 22.3608 83.6414 21.7941 83.7546 21.0688H87.2981C87.2415 22.1114 86.9585 23.0294 86.4604 23.8228C85.9529 24.6178 85.2359 25.257 84.3886 25.6701C83.4942 26.1234 82.4526 26.3387 81.2299 26.3387ZM92.687 18.2015V26.0667H88.9284V12.4555H92.6304V14.8808H92.7663C93.0719 14.0762 93.5588 13.4415 94.238 12.9769C94.9173 12.5235 95.7551 12.2855 96.7627 12.2855C97.7023 12.2855 98.5288 12.4895 99.2307 12.9089C99.9326 13.3169 100.476 13.9062 100.861 14.6768C101.246 15.4362 101.45 16.3428 101.45 17.4082V26.0667H97.691V18.0768C97.691 17.2495 97.4646 16.6035 97.0457 16.1275C96.5879 15.638 95.9371 15.3766 95.2683 15.4135C94.7701 15.4135 94.3173 15.5268 93.9324 15.7535C93.5361 15.9802 93.2418 16.2862 93.0267 16.7055C92.8002 17.1135 92.687 17.6122 92.687 18.2015ZM109.771 26.3387C108.528 26.3698 107.3 26.0644 106.216 25.4548C105.224 24.8764 104.422 24.022 103.906 22.9954C103.348 21.8536 103.073 20.5942 103.103 19.3235C103.103 17.9068 103.374 16.6828 103.906 15.6288C104.422 14.6023 105.224 13.7479 106.216 13.1695C107.3 12.5599 108.528 12.2545 109.771 12.2855C111.152 12.2855 112.341 12.5802 113.348 13.1695C114.34 13.7479 115.142 14.6023 115.658 15.6288C116.19 16.6828 116.462 17.9068 116.462 19.3235C116.491 20.5942 116.216 21.8536 115.658 22.9954C115.142 24.022 114.34 24.8764 113.348 25.4548C112.341 26.0441 111.152 26.3387 109.771 26.3387ZM109.805 23.3921C110.427 23.3921 110.948 23.2108 111.367 22.8594C111.786 22.5081 112.114 22.0208 112.329 21.4088C112.544 20.7855 112.646 20.0828 112.646 19.3008C112.646 18.5075 112.533 17.8048 112.329 17.1928C112.147 16.6335 111.814 16.1355 111.367 15.7535C110.925 15.3989 110.371 15.2141 109.805 15.2322C109.171 15.2322 108.639 15.4022 108.22 15.7535C107.79 16.0935 107.473 16.5808 107.257 17.1928C107.029 17.8717 106.918 18.5846 106.929 19.3008C106.929 20.0941 107.042 20.7855 107.257 21.4088C107.473 22.0208 107.79 22.5081 108.208 22.8594C108.639 23.2108 109.171 23.3921 109.793 23.3921H109.805ZM121.896 7.93357V26.0667H118.137V7.93357H121.896ZM130.217 26.3387C128.974 26.3698 127.746 26.0644 126.662 25.4548C125.67 24.8764 124.868 24.022 124.352 22.9954C123.791 21.8546 123.511 20.5952 123.537 19.3235C123.537 17.9068 123.809 16.6828 124.352 15.6288C124.868 14.6023 125.67 13.7479 126.662 13.1695C127.746 12.5599 128.974 12.2545 130.217 12.2855C131.598 12.2855 132.787 12.5802 133.794 13.1695C134.786 13.7479 135.588 14.6023 136.104 15.6288C136.636 16.6828 136.908 17.9068 136.908 19.3235C136.938 20.5942 136.662 21.8536 136.104 22.9954C135.588 24.022 134.786 24.8764 133.794 25.4548C132.787 26.0441 131.598 26.3387 130.217 26.3387ZM130.24 23.3921C130.874 23.3921 131.394 23.2108 131.813 22.8594C132.232 22.5081 132.549 22.0208 132.764 21.4088C132.991 20.7855 133.092 20.0828 133.092 19.3008C133.092 18.5075 132.979 17.8048 132.764 17.1928C132.585 16.6348 132.256 16.1369 131.813 15.7535C131.368 15.3964 130.81 15.2113 130.24 15.2322C129.617 15.2322 129.085 15.4022 128.655 15.7535C128.236 16.0935 127.907 16.5808 127.692 17.1928C127.468 17.8724 127.361 18.5852 127.375 19.3008C127.375 20.0941 127.488 20.7855 127.692 21.4088C127.919 22.0208 128.236 22.5081 128.655 22.8594C129.085 23.2108 129.617 23.3921 130.24 23.3921ZM144.651 31.45C143.14 31.5354 141.639 31.1558 140.349 30.362C139.382 29.7417 138.699 28.7642 138.447 27.6421L141.934 27.1887C142.181 27.8182 142.696 28.3045 143.338 28.5147C143.723 28.6621 144.187 28.7414 144.742 28.7414C145.557 28.7414 146.236 28.5374 146.78 28.1407C147.312 27.7441 147.572 27.0867 147.572 26.1574V23.6641H147.414C147.021 24.5389 146.296 25.2204 145.399 25.5567C144.878 25.7721 144.267 25.8741 143.542 25.8741C141.513 25.9515 139.633 24.8101 138.764 22.9728C138.227 21.8058 137.971 20.5285 138.017 19.2441C138.017 17.7028 138.266 16.4108 138.776 15.3795C139.891 12.8035 142.863 11.5982 145.455 12.6709C145.965 12.9202 146.384 13.2375 146.701 13.6229C147.04 14.0082 147.278 14.3822 147.436 14.7562H147.584V12.4669H151.297V26.2254C151.297 27.3814 151.014 28.3447 150.448 29.1267C149.882 29.8974 149.089 30.4867 148.093 30.872C147.097 31.2687 145.942 31.4614 144.651 31.4614V31.45ZM144.731 23.0408C145.636 23.0408 146.338 22.7008 146.836 22.0208C147.335 21.3408 147.584 20.4228 147.584 19.2215C147.584 18.4281 147.47 17.7482 147.244 17.1475C147.029 16.5582 146.712 16.1048 146.282 15.7762C145.836 15.4382 145.289 15.2623 144.731 15.2775C144.108 15.2775 143.599 15.4475 143.168 15.7875C142.738 16.1275 142.421 16.5808 142.195 17.1815C141.98 17.7708 141.866 18.4508 141.866 19.2215C141.854 19.9166 141.969 20.6081 142.206 21.2615C142.421 21.8281 142.738 22.2588 143.168 22.5761C143.587 22.8821 144.108 23.0294 144.731 23.0294V23.0408ZM153.516 26.0667V12.4555H157.263V26.0667H153.505H153.516ZM155.384 10.7102C154.818 10.7102 154.342 10.5289 153.946 10.1549C153.559 9.81002 153.34 9.31385 153.346 8.7949C153.346 8.27357 153.55 7.83157 153.946 7.45757C154.334 7.09119 154.851 6.89181 155.384 6.90225C155.95 6.90225 156.437 7.08358 156.833 7.46891C157.229 7.83157 157.422 8.27357 157.422 8.80623C157.422 9.32756 157.229 9.78089 156.833 10.1549C156.437 10.5289 155.95 10.7215 155.384 10.7215V10.7102ZM163.343 26.3274C162.55 26.3399 161.763 26.1855 161.033 25.8741C160.371 25.5919 159.807 25.1184 159.414 24.5141C159.007 23.8387 158.806 23.0585 158.837 22.2701C158.735 21.0199 159.326 19.8143 160.377 19.1308C160.863 18.8135 161.396 18.5641 162.007 18.4055C162.618 18.2468 163.252 18.1335 163.943 18.0655C164.735 17.9975 165.358 17.9181 165.845 17.8388C166.32 17.7708 166.671 17.6688 166.898 17.5102C167.124 17.3628 167.237 17.1475 167.237 16.8642V16.8075C167.237 16.2408 167.056 15.8102 166.694 15.5042C166.354 15.1868 165.845 15.0395 165.211 15.0395C164.532 15.0395 163.999 15.1868 163.592 15.4815C163.196 15.7762 162.935 16.1615 162.799 16.6148L159.312 16.3315C159.64 14.692 160.799 13.3426 162.369 12.7729C163.985 12.1976 165.735 12.1187 167.396 12.5462C168.086 12.7275 168.698 12.9995 169.241 13.3735C170.395 14.1613 171.058 15.4905 170.996 16.8868V26.0667H167.407V24.1628H167.317C166.865 25.0587 166.074 25.7362 165.12 26.0441C164.611 26.2367 164.022 26.3274 163.343 26.3274ZM164.43 23.7208C164.984 23.7208 165.471 23.6074 165.901 23.3808C166.32 23.1541 166.649 22.8594 166.898 22.4741C167.124 22.1001 167.249 21.6808 167.249 21.2048V19.7655C167.135 19.8335 166.977 19.9015 166.773 19.9695C166.569 20.0375 166.332 20.0828 166.094 20.1395C165.614 20.2368 165.131 20.3124 164.645 20.3661C164.203 20.4341 163.818 20.5361 163.479 20.6835C163.139 20.8195 162.89 21.0121 162.709 21.2501C162.528 21.4881 162.437 21.7941 162.437 22.1568C162.437 22.6554 162.618 23.0521 163.003 23.3128C163.365 23.5848 163.841 23.7208 164.43 23.7208Z" fill="black"/>
</g>
<defs>
<clipPath id="clip0_43_4234">
<rect width="171" height="34" fill="white"/>
</clipPath>
</defs>
</svg>
